<svg xmlns="http://www.w3.org/2000/svg" xmlns:xlink="http://www.w3.org/1999/xlink" version="1.0" x="0px" y="0px" viewBox="0 0 100 125" enable-background="new 0 0 100 100" xml:space="preserve"><rect x="34.166687" y="47.9940186" width="42.333313" height="3.7912598"/><rect x="34.166687" y="59.2440186" width="42.333313" height="3.7912598"/><rect x="34.166687" y="25.4940186" width="42.333313" height="3.7912598"/><rect x="34.166687" y="36.7440186" width="42.333313" height="3.7912598"/><rect x="34.166687" y="70.4940186" width="42.333313" height="3.7912598"/><path d="M17.21875,4.6581421v11.3356323h-3.473938c-1.5697632,0-2.854126,1.2843628-2.854126,2.854187  c0,1.5697632,1.2843628,2.854126,2.854126,2.854126h3.473938v4.875h-3.473938c-1.5697632,0-2.854126,1.2843628-2.854126,2.854187  c0,1.5697632,1.2843628,2.854126,2.854126,2.854126h3.473938v4.875h-3.473938c-1.5697632,0-2.854126,1.2843628-2.854126,2.854187  c0,1.5697632,1.2843628,2.854126,2.854126,2.854126h3.473938v4.8751221h-3.473938  c-1.5697632,0-2.854126,1.2843628-2.854126,2.854126c0,1.5698242,1.2843628,2.854187,2.854126,2.854187h3.473938v4.875h-3.473938  c-1.5697632,0-2.854126,1.2843628-2.854126,2.854126c0,1.5698242,1.2843628,2.854187,2.854126,2.854187h3.473938v4.875h-3.473938  c-1.5697632,0-2.854126,1.2843628-2.854126,2.854126c0,1.5698242,1.2843628,2.854187,2.854126,2.854187h3.473938v4.875h-3.473938  c-1.5697632,0-2.854126,1.2843628-2.854126,2.854126c0,1.5698242,1.2843628,2.854187,2.854126,2.854187h3.473938v10.1396484  h67.2797241h2.8604736h1.7504272v-1.6063232v-3.3480835V4.6581421H17.21875z M84.4984741,90.3873291H21.7597046h-0.000061  v-5.1852417h3.06073c1.5697632,0,2.854126-1.2843628,2.854126-2.854187c0-1.5697632-1.2843628-2.854126-2.854126-2.854126h-3.06073  v-4.875h3.06073c1.5697632,0,2.854126-1.2843628,2.854126-2.854187c0-1.5697632-1.2843628-2.854126-2.854126-2.854126h-3.06073  v-4.875h3.06073c1.5697632,0,2.854126-1.2843628,2.854126-2.854187c0-1.5697632-1.2843628-2.854126-2.854126-2.854126h-3.06073  v-4.875h3.06073c1.5697632,0,2.854126-1.2843628,2.854126-2.854187c0-1.5697632-1.2843628-2.854126-2.854126-2.854126h-3.06073  v-4.8751221h3.06073c1.5697632,0,2.854126-1.2843628,2.854126-2.854126c0-1.5698242-1.2843628-2.854187-2.854126-2.854187h-3.06073  v-4.875h3.06073c1.5697632,0,2.854126-1.2843628,2.854126-2.854126c0-1.5698242-1.2843628-2.854187-2.854126-2.854187h-3.06073  v-4.875h3.06073c1.5697632,0,2.854126-1.2843628,2.854126-2.854126c0-1.5698242-1.2843628-2.854187-2.854126-2.854187h-3.06073  V9.3788452h62.7388306V90.3873291z"/><text x="0" y="115" fill="#000000" font-size="5px" font-weight="bold" font-family="'Helvetica Neue', Helvetica, Arial-Unicode, Arial, Sans-serif">Created by Alexander Skowalsky</text><text x="0" y="120" fill="#000000" font-size="5px" font-weight="bold" font-family="'Helvetica Neue', Helvetica, Arial-Unicode, Arial, Sans-serif">from the Noun Project</text></svg>