<svg xmlns="http://www.w3.org/2000/svg" xmlns:xlink="http://www.w3.org/1999/xlink" viewBox="0 0 24 30" version="1.1" x="0px" y="0px"><title>icon/gaming</title><desc>Created with Sketch.</desc><g stroke="none" stroke-width="1" fill="none" fill-rule="evenodd"><path d="M15.1592613,5.80140183 L15.8596118,3 L8.85610723,3 L15.1592613,5.80140183 L15.1592613,5.80140183 Z M7,3.26938099 L7,10.6502428 L14.3808618,6.549764 L7,3.26938099 Z M7,19.8062871 L14.3720285,17.3489442 L7,12.4342585 L7,19.8062871 L7,19.8062871 Z M9.58113883,20 L15.8062871,20 L15.1837722,18.1324555 L9.58113883,20 L9.58113883,20 Z M15,16.5657415 L15,7.34975723 L7.45964927,11.538841 L15,16.5657415 L15,16.5657415 Z M16,7.56752081 L16,16.2928932 L20.759294,11.5335992 L16,7.56752081 L16,7.56752081 Z M16.6147241,19.2630336 L19.3280378,14.379069 L16.0720614,17.6350454 L16.6147241,19.2630336 L16.6147241,19.2630336 Z M16.6605063,3.91952765 L16.0611876,6.31680223 L19.7293187,9.37357808 L16.6605063,3.91952765 Z M6,18.571337 L6,12 L2.34925723,12 L6,18.571337 L6,18.571337 Z M2.34925723,11 L6,11 L6,4.42866301 L2.34925723,11 Z M16.4355,2 C16.616114,2 16.7826888,2.09740667 16.8712567,2.25481421 L21.9352567,11.2548142 C22.0204414,11.4062088 22.0209419,11.5909676 21.9365786,11.7428215 L16.9365786,20.7428215 C16.8483939,20.9015541 16.6810836,21 16.4995,21 L6.4995,21 C6.31791644,21 6.15060614,20.9015541 6.06242136,20.7428215 L1.06242136,11.7428215 C0.978526213,11.5918102 0.978526213,11.4081898 1.06242136,11.2571785 L6.06242136,2.25717853 C6.15060614,2.09844594 6.31791644,2 6.4995,2 L16.4355,2 Z" fill="#000000" fill-rule="nonzero"/></g><text x="0" y="39" fill="#000000" font-size="5px" font-weight="bold" font-family="'Helvetica Neue', Helvetica, Arial-Unicode, Arial, Sans-serif">Created by Travis Avery</text><text x="0" y="44" fill="#000000" font-size="5px" font-weight="bold" font-family="'Helvetica Neue', Helvetica, Arial-Unicode, Arial, Sans-serif">from the Noun Project</text></svg>